<svg width="19" height="18" viewBox="0 0 19 18" fill="none" xmlns="http://www.w3.org/2000/svg">
<path d="M2.20312 8.625C2.20312 5.26624 2.20312 3.58686 3.24656 2.54343C4.28999 1.5 5.96937 1.5 9.32812 1.5C12.6869 1.5 14.3663 1.5 15.4097 2.54343C16.4531 3.58686 16.4531 5.26624 16.4531 8.625C16.4531 11.9838 16.4531 13.6631 15.4097 14.7066C14.3663 15.75 12.6869 15.75 9.32812 15.75C5.96937 15.75 4.28999 15.75 3.24656 14.7066C2.20312 13.6631 2.20312 11.9838 2.20312 8.625Z" stroke="#667185" stroke-width="1.125" stroke-linejoin="round"/>
<path d="M9.97599 5.41657L10.6359 6.74733C10.7259 6.93258 10.9659 7.11026 11.1684 7.14429L12.3645 7.34466C13.1294 7.4732 13.3094 8.03272 12.7582 8.58469L11.8283 9.52227C11.6708 9.68105 11.5846 9.98728 11.6333 10.2066L11.8995 11.3672C12.1095 12.2859 11.6258 12.6412 10.8196 12.1611L9.69852 11.4919C9.49604 11.371 9.16233 11.371 8.9561 11.4919L7.83498 12.1611C7.03256 12.6412 6.54512 12.2821 6.75509 11.3672L7.02132 10.2066C7.07006 9.98728 6.98382 9.68105 6.82634 9.52227L5.89644 8.58469C5.349 8.03272 5.52523 7.4732 6.29015 7.34466L7.48626 7.14429C7.68499 7.11026 7.92497 6.93258 8.01496 6.74733L8.67488 5.41657C9.03484 4.69448 9.61978 4.69448 9.97599 5.41657Z" stroke="#667185" stroke-width="1.125" stroke-linecap="round" stroke-linejoin="round"/>
</svg>
