<svg width="338" height="46" viewBox="0 0 338 46" fill="none" xmlns="http://www.w3.org/2000/svg">
<path d="M28.8781 6.3501H10.6846C4.78327 6.3501 0 11.0331 0 16.8089V34.6152C0 40.3909 4.78327 45.0724 10.6846 45.0724H28.8781C34.7794 45.0724 39.5643 40.3909 39.5643 34.6152V16.8089C39.5643 11.0331 34.7794 6.3501 28.8781 6.3501ZM17.6597 36.3122L14.8378 39.5919C14.0466 40.5115 12.5101 40.2503 12.0821 39.1236C11.7711 38.3091 11.4615 37.493 11.152 36.6785C10.9467 36.1406 10.4525 35.7527 9.86501 35.6693C9.0549 35.5533 8.24479 35.439 7.43468 35.3231C6.18872 35.1453 5.61707 33.728 6.41612 32.7992L9.2065 29.5581C9.55865 29.1486 10.1066 28.9461 10.6562 29.0156C12.1516 29.2042 13.7861 29.2336 15.2894 29.4129C15.9132 29.487 16.4375 29.9043 16.6333 30.4777C17.1118 31.8811 17.4576 33.4359 17.944 34.83C18.1209 35.3401 18.0182 35.8995 17.6629 36.3107L17.6597 36.3122ZM25.1829 27.7406L22.3593 31.0202C21.5682 31.9398 20.0316 31.6786 19.6037 30.5519C19.2926 29.7374 18.9831 28.9229 18.6736 28.1069C18.4683 27.569 17.974 27.1826 17.3865 27.0976C16.5764 26.9832 15.7663 26.8673 14.9562 26.7514C13.7103 26.5737 13.1386 25.1549 13.9377 24.226L16.728 20.9849C17.0802 20.5754 17.6282 20.3729 18.1777 20.4425C19.6732 20.631 21.3076 20.6604 22.811 20.8397C23.4347 20.9139 23.959 21.3296 24.1548 21.9046C24.6317 23.3079 24.9791 24.8627 25.4639 26.2568C25.6408 26.7669 25.5382 27.3264 25.1829 27.739V27.7406ZM32.248 19.4703L29.4245 22.75C28.6333 23.6696 27.0968 23.4084 26.6688 22.2817C26.3593 21.4672 26.0482 20.6511 25.7387 19.8366C25.535 19.2987 25.0407 18.9124 24.4517 18.8289C23.6416 18.713 22.8299 18.5971 22.0214 18.4827C20.7754 18.305 20.2038 16.8877 21.0028 15.9588L23.7932 12.7162C24.1453 12.3067 24.6933 12.1042 25.2444 12.1737C26.7399 12.3623 28.3728 12.3917 29.8777 12.571C30.5015 12.6451 31.0257 13.0609 31.2216 13.6358C31.6985 15.0392 32.0459 16.594 32.5307 17.9881C32.7075 18.4982 32.6049 19.0576 32.2496 19.4688L32.248 19.4703Z" fill="white"/>
<path d="M103.271 24.4332V43.8897H92.1787V25.2162C92.1787 22.7288 91.72 20.8394 90.8047 19.5967C89.9655 18.4669 88.6763 17.9115 86.8501 17.9115C85.0239 17.9115 83.4564 18.5754 82.3085 19.9265C81.1214 21.3288 80.5149 23.3736 80.5149 25.995V43.8918H69.4294V25.2162C69.4294 22.7352 68.9511 20.8458 68.0228 19.6031C67.164 18.4669 65.8357 17.9115 63.9573 17.9115C62.0789 17.9115 60.6354 18.5754 59.4853 19.9265C58.2983 21.3288 57.6917 23.3736 57.6917 25.995V43.8918H46.6062V9.13867H56.5047L56.609 9.74509C56.5438 9.78977 56.4808 9.83446 56.4155 9.88339C54.9046 11.0132 53.5958 12.3835 52.524 13.9496L54.1371 15.005C55.085 13.6091 56.246 12.3899 57.596 11.3856C59.3896 10.0345 61.5245 9.07484 63.7638 8.59396L63.7573 8.56842C64.603 8.42373 65.4922 8.35352 66.4162 8.35352C71.2426 8.35352 74.9015 9.9834 77.3321 13.19C78.4669 11.9261 79.8344 10.8792 81.428 10.0643C83.6151 8.92802 86.0413 8.35352 88.635 8.35352C93.294 8.35352 96.9377 9.76849 99.4878 12.5474C101.999 15.2816 103.269 19.2861 103.269 24.4311L103.271 24.4332Z" fill="white"/>
<path d="M140.033 9.13867V43.8897H130.085L129.95 42.7854C130.285 42.5066 130.609 42.2109 130.917 41.9023C132.252 40.5703 133.35 39.0362 134.183 37.3361L132.435 36.5212C131.7 38.0298 130.726 39.3937 129.539 40.581C128.352 41.7683 126.945 42.7662 125.411 43.5173C125.332 43.5556 125.256 43.5939 125.178 43.6195C123.45 44.3131 121.526 44.6685 119.436 44.6685C114.945 44.6685 111.41 43.2535 108.931 40.4682C106.498 37.734 105.259 33.7359 105.259 28.5909V9.13867H116.286V27.8121C116.286 30.2867 116.777 32.1698 117.745 33.4018C118.641 34.5508 120.086 35.1126 122.152 35.1126C124.217 35.1126 125.719 34.4423 126.998 33.0592C128.289 31.6634 128.946 29.6356 128.946 27.0355V9.13867H140.038H140.033Z" fill="white"/>
<path d="M179.01 9.13867L158.365 43.8897H146.267L140.788 9.13867H152.471L155.202 30.7676L167.325 9.13867H179.01Z" fill="white"/>
<path d="M236.165 24.4334V43.8899H225.073V25.2164C225.073 22.729 224.607 20.8395 223.692 19.5969C222.859 18.4671 221.57 17.9181 219.738 17.9181C217.905 17.9181 216.344 18.5756 215.202 19.9267C214.015 21.3289 213.409 23.3674 213.409 25.9952V43.892H202.317V25.2164C202.317 22.7354 201.845 20.8459 200.91 19.6033C200.058 18.4671 198.73 17.9181 196.851 17.9181C194.973 17.9181 193.523 18.5756 192.373 19.9267C191.186 21.3289 190.586 23.3737 190.586 25.9952V43.892H179.494V9.13884H189.392L189.483 9.66228C189.355 9.7559 189.225 9.85804 189.103 9.95804C187.644 11.1581 186.392 12.5795 185.398 14.1881L187.057 15.1669C187.825 13.9221 188.768 12.805 189.851 11.839V11.8454C190.051 11.6624 190.251 11.4922 190.464 11.322C190.49 11.2964 190.516 11.2709 190.549 11.2517C190.742 11.0943 190.949 10.9496 191.155 10.7964C191.614 10.4751 192.103 10.1772 192.614 9.90485C194.542 8.875 196.795 8.35156 199.306 8.35156C204.132 8.35156 207.798 9.98145 210.222 13.188C211.357 11.9305 212.731 10.8836 214.324 10.0559C216.511 8.92606 218.937 8.35156 221.531 8.35156C226.184 8.35156 229.836 9.76654 232.384 12.5454C234.895 15.286 236.165 19.2841 236.165 24.4291V24.4334Z" fill="white"/>
<path d="M271.524 16.7604C270.028 14.1709 267.91 12.1005 265.232 10.6026C262.567 9.11314 259.471 8.35352 256.031 8.35352C252.366 8.35352 249.122 9.14292 246.385 10.7026C243.644 12.2686 241.47 14.4794 239.926 17.2689C238.391 20.0414 237.617 23.2374 237.617 26.7674C237.617 30.2974 238.411 33.4103 239.972 36.0999C241.546 38.8085 243.746 40.9363 246.513 42.4279C249.261 43.911 252.442 44.6642 255.966 44.6642C258.792 44.6642 261.38 44.1471 263.645 43.1237C265.91 42.0938 267.845 40.6618 269.4 38.8617C270.941 37.068 272.065 35.0466 272.735 32.8507L273.232 31.2145H262.038L261.684 31.9528C261.212 32.9507 260.503 33.7465 259.529 34.3785C258.582 34.9913 257.362 35.3062 255.903 35.3062C253.916 35.3062 252.277 34.7125 250.903 33.4933C249.831 32.5465 249.148 31.3272 248.824 29.7995H273.561L273.652 28.6186C273.698 28.0441 273.73 27.4887 273.748 26.9504C273.774 26.4142 273.787 25.9014 273.787 25.4099C273.787 22.2522 273.026 19.3414 271.522 16.7583L271.524 16.7604ZM249.155 22.0586C249.614 20.7947 250.322 19.8287 251.296 19.1286C252.67 18.1371 254.218 17.6583 256.031 17.6583C257.845 17.6583 259.386 18.169 260.612 19.2244C261.49 19.9755 262.071 20.916 262.36 22.0607H249.153L249.155 22.0586Z" fill="white"/>
<path d="M310.21 24.4335V43.89H299.118V25.2165C299.118 22.7419 298.629 20.8588 297.659 19.6226C296.761 18.4736 295.337 17.9182 293.318 17.9182C291.298 17.9182 289.685 18.5885 288.407 19.9715C287.111 21.3674 286.459 23.3952 286.459 25.9953V43.8921H275.36V9.13898H285.315L285.439 10.1561C284.072 11.2349 282.878 12.5115 281.897 13.9584L283.511 15.0074C284.15 14.0669 284.891 13.2073 285.717 12.4434V12.4562C285.809 12.3626 285.898 12.2668 285.996 12.1838C286.009 12.1711 286.022 12.1583 286.041 12.1455C286.789 11.4136 287.635 10.7753 288.57 10.2263C289.937 9.43049 291.468 8.88152 293.137 8.5964C294.059 8.43894 295.022 8.35596 296.035 8.35596C300.481 8.35596 303.997 9.77093 306.501 12.5562C308.967 15.2968 310.21 19.2949 310.21 24.4335Z" fill="white"/>
<path d="M328.386 18.6309V31.4508C328.386 32.9785 328.753 33.5211 328.966 33.7041C329.219 33.9126 329.895 34.2658 331.662 34.2658H337.076V43.8898H330.004C326.268 43.8898 323.203 42.9621 320.892 41.1365C318.505 39.2491 317.292 35.9702 317.292 31.3869V18.6309H311.652V9.13881H317.433L318.427 0.5H328.382V7.54723H323.529V9.11966H328.382V9.13881H337.274V18.6309H328.382H328.386Z" fill="white"/>
</svg>
